<?xml version="1.0" encoding="UTF-8"?>
<svg xmlns="http://www.w3.org/2000/svg" xmlns:xlink="http://www.w3.org/1999/xlink" width="99pt" height="75pt" viewBox="0 0 99 75" version="1.1">
<g id="surface1">
<path style=" stroke:none;fill-rule:nonzero;fill:rgb(0%,0%,0%);fill-opacity:1;" d="M 17.777344 30.792969 C 18.332031 31.105469 18.941406 31.273438 19.570312 31.359375 C 20.214844 31.449219 20.882812 31.453125 21.535156 31.4375 C 22.578125 31.414062 23.617188 31.347656 24.65625 31.261719 C 24.445312 35.960938 24.234375 40.660156 24.023438 45.359375 C 23.859375 49.125 30.097656 49.066406 30.265625 45.308594 C 30.484375 40.378906 30.40625 35.484375 30.53125 30.566406 C 31.277344 30.464844 32.023438 30.359375 32.769531 30.261719 C 34.992188 29.960938 37.175781 29.550781 39.40625 29.328125 C 42.34375 29.03125 43.625 24.414062 40.523438 23.332031 C 40.09375 23.183594 39.628906 23.179688 39.171875 23.203125 C 36.226562 23.363281 33.144531 24.148438 30.269531 24.714844 C 27.179688 25.316406 23.988281 25.585938 20.867188 26.003906 C 19.695312 26.164062 18.226562 26.308594 17.335938 27.1875 C 16.222656 28.273438 16.394531 30.015625 17.777344 30.792969 Z M 17.777344 30.792969 "/>
<path style=" stroke:none;fill-rule:nonzero;fill:rgb(0%,0%,0%);fill-opacity:1;" d="M 13.21875 49.214844 C 15.121094 49.019531 17.023438 48.949219 18.917969 48.96875 C 22.636719 49.011719 22.65625 42.386719 18.917969 42.695312 C 13.253906 43.167969 7.628906 44.070312 2.085938 45.421875 C -1.566406 46.3125 -0.0195312 52.359375 3.632812 51.46875 C 5.160156 50.878906 6.691406 50.414062 8.222656 50.050781 C 8.128906 54.886719 8.078125 59.410156 8.757812 64.320312 C 8.992188 65.996094 10.953125 66.921875 12.335938 66.511719 C 14 66.019531 14.601562 64.335938 14.367188 62.652344 C 13.738281 58.136719 13.273438 53.738281 13.21875 49.214844 Z M 13.21875 49.214844 "/>
<path style=" stroke:none;fill-rule:nonzero;fill:rgb(0%,0%,0%);fill-opacity:1;" d="M 49.023438 43.714844 C 46.867188 39.828125 44.710938 35.941406 42.554688 32.054688 C 41.9375 30.941406 40.949219 30.171875 39.65625 30.425781 C 38.355469 30.679688 37.257812 31.488281 36.757812 32.75 C 35.25 36.542969 34.136719 40.449219 33.417969 44.472656 C 33.140625 46.027344 33.839844 47.628906 35.449219 48.074219 C 36.859375 48.460938 38.746094 47.59375 39.027344 46.027344 C 39.058594 45.867188 39.082031 45.703125 39.109375 45.542969 C 40.46875 45.394531 41.832031 45.246094 43.1875 45.097656 C 43.445312 45.625 43.710938 46.152344 44 46.667969 C 45.824219 49.960938 50.851562 47.011719 49.023438 43.714844 Z M 39.546875 42.566406 C 39.75 41.070312 39.953125 39.582031 40.25 38.109375 C 40.839844 39.5 41.382812 40.910156 41.957031 42.304688 C 41.152344 42.390625 40.351562 42.480469 39.546875 42.566406 Z M 39.546875 42.566406 "/>
<path style=" stroke:none;fill-rule:nonzero;fill:rgb(0%,0%,0%);fill-opacity:1;" d="M 58.082031 33.039062 C 60.628906 35.8125 64.738281 31.664062 62.195312 28.902344 C 57.136719 23.398438 47.777344 26.503906 47.121094 34.03125 C 46.824219 37.4375 48.800781 40.914062 51.824219 42.453125 C 55.230469 44.179688 59.199219 43.285156 61.96875 40.746094 C 64.117188 38.777344 61.035156 34.992188 58.09375 37.328125 C 55.757812 39.183594 52.476562 37.183594 52.914062 34.320312 C 53.335938 31.597656 56.441406 31.253906 58.082031 33.039062 Z M 58.082031 33.039062 "/>
<path style=" stroke:none;fill-rule:nonzero;fill:rgb(0%,0%,0%);fill-opacity:1;" d="M 69.125 31.8125 C 65.476562 33.460938 63.316406 37.460938 64.820312 41.355469 C 66.464844 45.621094 71.621094 47.464844 75.628906 45.324219 C 78.230469 43.9375 79.867188 41.058594 79.777344 38.101562 C 79.734375 36.621094 79.285156 35.324219 78.5625 34.261719 C 76.605469 31.382812 72.625 30.226562 69.125 31.8125 Z M 72.707031 39.519531 C 71.773438 40.71875 69.871094 40.699219 69.457031 38.75 C 69.238281 37.710938 69.65625 36.867188 70.433594 36.511719 C 71.238281 36.140625 72.445312 36.144531 72.984375 37.207031 C 73.375 37.984375 73.152344 38.945312 72.707031 39.519531 Z M 72.707031 39.519531 "/>
<path style=" stroke:none;fill-rule:nonzero;fill:rgb(0%,0%,0%);fill-opacity:1;" d="M 30.171875 54.671875 C 29.925781 53.066406 27.988281 52.175781 26.59375 52.570312 C 24.941406 53.042969 24.527344 54.6875 24.773438 56.300781 C 24.941406 57.386719 25.5 63.277344 23.421875 63.320312 C 21.945312 63.347656 22.195312 57.554688 22.308594 56.609375 C 22.5 54.996094 21.09375 53.386719 19.660156 53.386719 C 17.929688 53.386719 16.945312 54.773438 16.753906 56.394531 C 16.421875 59.160156 16.402344 62.058594 17.90625 64.496094 C 19.320312 66.789062 21.855469 68.238281 24.5 67.773438 C 26.851562 67.359375 28.777344 65.609375 29.769531 63.394531 C 31.019531 60.613281 30.621094 57.597656 30.171875 54.671875 Z M 30.171875 54.671875 "/>
<path style=" stroke:none;fill-rule:nonzero;fill:rgb(0%,0%,0%);fill-opacity:1;" d="M 54.4375 55.710938 C 53.546875 55.195312 52.617188 54.746094 51.71875 54.25 C 51.398438 54.074219 50.972656 53.910156 51.023438 53.445312 C 51.070312 53.042969 51.464844 52.925781 51.816406 52.976562 C 52.328125 53.046875 52.820312 53.324219 53.3125 53.640625 C 54.285156 54.273438 55.25 55.066406 56.320312 54.699219 C 57.203125 54.394531 57.890625 53.386719 57.816406 52.441406 C 57.71875 51.195312 56.714844 50.140625 55.617188 49.535156 C 54.046875 48.667969 51.867188 48.246094 50.074219 48.789062 C 47.398438 49.601562 45.164062 51.917969 45.433594 54.65625 C 45.746094 57.859375 49.527344 58.734375 51.960938 60.324219 C 52.292969 60.539062 52.617188 60.78125 52.8125 61.109375 C 53.007812 61.4375 53.042969 61.871094 52.808594 62.183594 C 52.597656 62.464844 52.203125 62.589844 51.839844 62.5625 C 51.476562 62.53125 51.140625 62.375 50.835938 62.1875 C 50.476562 61.964844 50.148438 61.695312 49.867188 61.394531 C 49.550781 61.054688 49.28125 60.664062 48.875 60.421875 C 47.65625 59.703125 46.332031 60.917969 45.839844 61.890625 C 45.210938 63.121094 45.457031 64.535156 46.515625 65.453125 C 50.894531 69.261719 58.949219 66.4375 58.203125 60.378906 C 57.929688 58.1875 56.234375 56.75 54.4375 55.710938 Z M 54.4375 55.710938 "/>
<path style=" stroke:none;fill-rule:nonzero;fill:rgb(0%,0%,0%);fill-opacity:1;" d="M 71.472656 54.722656 C 71 49.984375 66.746094 47.5 62.335938 47.914062 C 62.101562 47.9375 61.871094 47.980469 61.648438 48.039062 C 60.648438 48.183594 59.714844 48.871094 59.425781 50.117188 C 59.375 50.316406 59.347656 50.527344 59.339844 50.75 C 59.175781 54.15625 59.433594 57.542969 60.050781 60.894531 C 60.371094 62.640625 61.695312 63.253906 62.929688 63.023438 C 63.164062 63.019531 63.414062 63 63.675781 62.953125 C 67.984375 62.199219 71.964844 59.679688 71.472656 54.722656 Z M 65.011719 58.183594 C 64.789062 56.644531 64.667969 55.105469 64.640625 53.554688 C 65.675781 53.824219 66.609375 54.363281 66.769531 55.355469 C 66.972656 56.628906 66.070312 57.5625 65.011719 58.183594 Z M 65.011719 58.183594 "/>
<path style=" stroke:none;fill-rule:nonzero;fill:rgb(0%,0%,0%);fill-opacity:1;" d="M 79.585938 49.351562 C 78.9375 48.480469 77.992188 47.902344 76.984375 47.90625 C 75.804688 47.542969 74.445312 48.105469 74.082031 49.960938 C 73.214844 54.390625 72.265625 58.800781 71.234375 63.195312 C 70.375 66.855469 75.984375 68.421875 76.84375 64.75 C 76.96875 64.21875 77.078125 63.683594 77.179688 63.144531 C 78.449219 62.636719 79.71875 62.125 80.992188 61.613281 C 81.238281 62.09375 81.496094 62.566406 81.777344 63.035156 C 83.714844 66.253906 88.746094 63.3125 86.800781 60.078125 C 84.574219 56.378906 82.171875 52.804688 79.585938 49.351562 Z M 77.679688 59.8125 C 77.859375 58.335938 78.007812 56.855469 78.1875 55.378906 C 78.75 56.554688 79.25 57.765625 79.769531 58.972656 C 79.070312 59.25 78.375 59.53125 77.679688 59.8125 Z M 77.679688 59.8125 "/>
<path style=" stroke:none;fill-rule:nonzero;fill:rgb(0%,0%,0%);fill-opacity:1;" d="M 41.136719 59.746094 C 40.308594 59.859375 38.917969 60.195312 37.894531 60.273438 C 37.890625 60.230469 37.855469 59.183594 37.851562 58.992188 C 38.464844 58.925781 39.078125 58.859375 39.691406 58.792969 C 40.410156 58.714844 41.007812 58.238281 41.015625 57.460938 C 41.023438 56.800781 40.402344 56.054688 39.691406 56.128906 C 39.042969 56.199219 38.394531 56.273438 37.742188 56.34375 C 37.746094 56.140625 37.761719 55.988281 37.796875 55.9375 C 38.144531 55.433594 41.226562 55.425781 42.007812 55.21875 C 45.300781 54.355469 43.90625 49.21875 40.601562 50.085938 C 38.449219 50.652344 36.28125 50.355469 34.445312 51.875 C 32.34375 53.613281 32.511719 56.152344 32.554688 58.640625 C 32.597656 60.988281 32.527344 63.753906 35.1875 64.6875 C 37.367188 65.453125 40.089844 64.574219 42.304688 64.261719 C 43.71875 64.0625 44.492188 62.246094 44.152344 60.988281 C 43.730469 59.453125 42.554688 59.542969 41.136719 59.746094 Z M 41.136719 59.746094 "/>
<path style=" stroke:none;fill-rule:nonzero;fill:rgb(0%,0%,0%);fill-opacity:1;" d="M 98.589844 49.234375 C 99.472656 47.925781 98.835938 45.988281 97.546875 45.230469 C 96.109375 44.382812 94.453125 44.96875 93.566406 46.277344 C 92.441406 47.941406 91.722656 49.898438 90.839844 51.734375 C 89.296875 49.933594 88.171875 47.492188 86.75 45.667969 C 85.78125 44.421875 83.652344 44.644531 82.636719 45.667969 C 81.417969 46.898438 81.664062 48.558594 82.636719 49.808594 C 84.285156 51.921875 86.089844 53.886719 88.054688 55.707031 C 88.339844 55.96875 88.632812 56.167969 88.925781 56.3125 C 88.796875 58.410156 88.449219 60.320312 88.769531 62.484375 C 89 64.050781 90.964844 64.914062 92.347656 64.53125 C 94.011719 64.070312 94.609375 62.5 94.378906 60.929688 C 94.160156 59.472656 93.777344 58.054688 93.566406 56.613281 C 93.648438 56.515625 93.730469 56.414062 93.804688 56.304688 C 95.398438 53.949219 96.996094 51.589844 98.589844 49.234375 Z M 98.589844 49.234375 "/>
<path style=" stroke:none;fill-rule:nonzero;fill:rgb(0%,0%,0%);fill-opacity:1;" d="M 38.171875 20.339844 C 39.394531 20.96875 40.761719 21.273438 42.109375 21.5 C 44.765625 21.945312 47.460938 22.21875 50.136719 22.558594 C 55.714844 23.277344 61.296875 23.996094 66.878906 24.710938 C 68.234375 24.886719 69.640625 25.191406 71.011719 25.171875 C 71.828125 25.160156 72.820312 25.050781 73.476562 24.511719 C 74.191406 23.925781 74.417969 22.890625 74.648438 22.03125 C 75.167969 20.132812 75.3125 18.140625 75.101562 16.183594 C 74.898438 14.320312 74.375 12.488281 73.546875 10.804688 C 73.136719 9.964844 72.644531 9.164062 72.085938 8.414062 C 71.804688 8.039062 71.507812 7.675781 71.195312 7.328125 C 70.871094 6.972656 70.53125 6.710938 70.257812 6.355469 C 70.15625 6.226562 70.066406 6.082031 69.992188 5.917969 C 69.738281 5.382812 69.746094 4.75 69.410156 4.25 C 68.875 3.445312 67.921875 3.21875 67.027344 3.105469 C 66.273438 3.015625 65.632812 2.972656 65.050781 2.441406 C 64.539062 1.972656 64.117188 1.425781 63.550781 1.019531 C 62.851562 0.511719 62.042969 0.359375 61.203125 0.546875 C 60.824219 0.632812 60.457031 0.789062 60.070312 0.808594 C 59.660156 0.828125 59.242188 0.75 58.839844 0.667969 C 57.933594 0.480469 57.042969 0.0859375 56.117188 0.0234375 C 55.230469 -0.0351562 54.457031 0.34375 53.851562 0.972656 C 53.746094 1.078125 53.648438 1.199219 53.550781 1.320312 C 53.550781 1.320312 53.132812 1.214844 53.085938 1.207031 C 52.898438 1.1875 52.714844 1.167969 52.527344 1.144531 C 52.238281 1.113281 51.949219 1.117188 51.660156 1.128906 C 51.03125 1.148438 50.410156 1.195312 49.789062 1.269531 C 48.5 1.421875 47.226562 1.664062 45.984375 2.039062 C 43.535156 2.777344 41.238281 3.976562 39.28125 5.636719 C 36.503906 7.996094 34.242188 11.871094 34.832031 15.644531 C 35.152344 17.683594 36.347656 19.402344 38.171875 20.339844 Z M 39.363281 13.859375 C 38.84375 14.730469 39.0625 15.683594 38.882812 16.625 C 38.796875 17.050781 38.441406 17.519531 38.089844 16.96875 C 37.640625 16.261719 37.8125 15.101562 38.546875 14.648438 C 38.917969 14.417969 38.914062 13.988281 38.671875 13.671875 C 38.085938 12.914062 38.851562 12.09375 39.648438 12.195312 C 40.042969 12.246094 40.359375 11.757812 40.246094 11.40625 C 39.957031 10.527344 40.582031 9.515625 41.578125 9.667969 C 42.0625 9.742188 42.425781 9.402344 42.339844 8.902344 C 42.226562 8.277344 42.488281 7.644531 43.011719 7.285156 C 43.433594 6.996094 43.96875 7.082031 44.425781 6.894531 C 44.890625 6.703125 44.964844 6.40625 45.269531 6.058594 C 45.816406 5.433594 46.871094 5.292969 47.582031 5.699219 C 47.496094 5.742188 47.402344 5.773438 47.292969 5.792969 C 46.507812 5.917969 45.746094 6.066406 45.292969 6.796875 C 44.984375 7.292969 44.960938 7.910156 44.871094 8.421875 C 44.761719 9.039062 44.53125 9.21875 43.910156 9.394531 C 43.109375 9.625 42.414062 9.972656 42.132812 10.820312 C 42 11.214844 42 11.640625 41.960938 12.050781 C 41.9375 12.300781 41.933594 12.589844 41.679688 12.714844 C 41.308594 12.894531 40.835938 12.84375 40.445312 12.984375 C 39.992188 13.144531 39.613281 13.441406 39.363281 13.859375 Z M 64.878906 5.21875 C 67.503906 6.179688 69.851562 7.9375 71.09375 10.492188 C 72.492188 13.378906 73.105469 16.597656 72.742188 19.796875 C 72.652344 20.589844 72.496094 21.402344 72.046875 22.0625 C 71.855469 22.34375 71.625 22.5625 71.367188 22.722656 C 70.164062 23.480469 68.375 23.074219 67.058594 22.90625 C 64.417969 22.566406 61.777344 22.226562 59.136719 21.886719 C 53.945312 21.21875 48.75 20.59375 43.566406 19.882812 C 42.738281 19.769531 41.878906 19.636719 41.046875 19.425781 C 41.785156 19.148438 42.46875 18.703125 43.019531 18.160156 C 44.480469 16.726562 45.398438 14.757812 46.53125 13.070312 C 48.625 9.945312 51.222656 6.859375 54.761719 5.363281 C 57.960938 4.011719 61.636719 4.035156 64.878906 5.21875 Z M 50.878906 4.328125 C 51.628906 4.179688 52.359375 4.175781 53.050781 3.808594 C 53.703125 3.464844 54.136719 2.867188 54.601562 2.316406 C 55.109375 1.71875 55.574219 1.359375 56.398438 1.535156 C 57.289062 1.726562 58.140625 2.046875 59.050781 2.183594 C 59.457031 2.242188 59.867188 2.296875 60.28125 2.253906 C 60.734375 2.203125 61.148438 2.054688 61.589844 1.957031 C 62.363281 1.789062 62.90625 2.320312 63.402344 2.839844 C 63.425781 2.863281 63.445312 2.886719 63.46875 2.910156 C 61.328125 2.429688 59.089844 2.390625 56.933594 2.808594 C 52.953125 3.574219 49.671875 6.085938 47.144531 9.183594 C 45.667969 10.992188 44.425781 12.957031 43.191406 14.933594 C 42.507812 16.03125 41.292969 17.679688 39.894531 17.914062 C 40.117188 17.59375 40.257812 17.210938 40.320312 16.796875 C 40.417969 16.136719 40.214844 15.144531 40.632812 14.574219 C 40.820312 14.316406 41.15625 14.300781 41.449219 14.253906 C 41.875 14.183594 42.285156 14.09375 42.636719 13.828125 C 43.289062 13.339844 43.375 12.570312 43.429688 11.808594 C 43.449219 11.566406 43.445312 11.234375 43.640625 11.058594 C 43.863281 10.851562 44.257812 10.820312 44.535156 10.734375 C 45.273438 10.503906 45.851562 10.070312 46.132812 9.328125 C 46.328125 8.816406 46.300781 8.28125 46.433594 7.789062 C 46.480469 7.628906 46.519531 7.527344 46.679688 7.421875 C 46.988281 7.222656 47.417969 7.261719 47.765625 7.1875 C 48.609375 7.019531 49.109375 6.40625 49.480469 5.667969 C 49.820312 4.996094 50.101562 4.484375 50.878906 4.328125 Z M 36.699219 14.503906 C 36.699219 14.308594 36.707031 14.125 36.722656 13.9375 C 36.738281 13.769531 36.757812 13.601562 36.789062 13.429688 C 36.855469 13.070312 36.945312 12.714844 37.050781 12.363281 C 37.152344 12.027344 37.335938 11.535156 37.410156 11.359375 C 38.132812 9.714844 39 8.542969 40.292969 7.371094 C 41.914062 5.898438 43.886719 4.816406 45.957031 4.121094 C 47.128906 3.730469 48.339844 3.441406 49.566406 3.277344 C 49.128906 3.539062 48.773438 3.921875 48.507812 4.382812 C 48.445312 4.492188 48.394531 4.601562 48.339844 4.710938 C 47.121094 4.089844 45.070312 4.40625 44.25 5.761719 C 42.605469 5.578125 41.222656 6.851562 41.109375 8.46875 C 39.855469 8.652344 38.890625 9.710938 38.925781 10.996094 C 38.347656 11.132812 37.820312 11.5 37.527344 12.023438 C 37.230469 12.546875 37.105469 13.386719 37.394531 13.941406 C 37.402344 13.957031 37.414062 13.976562 37.410156 13.996094 C 37.40625 14.011719 37.394531 14.027344 37.386719 14.039062 C 37.074219 14.425781 36.871094 14.898438 36.808594 15.390625 C 36.660156 15.085938 36.699219 14.824219 36.699219 14.503906 Z M 36.699219 14.503906 "/>
<path style=" stroke:none;fill-rule:nonzero;fill:rgb(0%,0%,0%);fill-opacity:1;" d="M 57.121094 8.511719 C 56.828125 8.285156 56.324219 8.402344 56.078125 8.636719 C 55.976562 8.730469 55.902344 8.855469 55.867188 8.992188 C 55.761719 9.402344 56.03125 9.792969 56.40625 9.941406 C 56.664062 10.042969 56.964844 9.992188 57.1875 9.828125 C 57.574219 9.550781 57.613281 8.972656 57.28125 8.636719 C 57.226562 8.59375 57.175781 8.554688 57.121094 8.511719 Z M 57.121094 8.511719 "/>
<path style=" stroke:none;fill-rule:nonzero;fill:rgb(0%,0%,0%);fill-opacity:1;" d="M 62.539062 13.3125 C 64.058594 13.3125 64.0625 10.9375 62.539062 10.9375 C 61.023438 10.9375 61.019531 13.3125 62.539062 13.3125 Z M 62.539062 13.3125 "/>
<path style=" stroke:none;fill-rule:nonzero;fill:rgb(0%,0%,0%);fill-opacity:1;" d="M 61.359375 9.257812 C 62.371094 9.257812 62.371094 7.671875 61.359375 7.671875 C 60.347656 7.671875 60.34375 9.257812 61.359375 9.257812 Z M 61.359375 9.257812 "/>
<path style=" stroke:none;fill-rule:nonzero;fill:rgb(0%,0%,0%);fill-opacity:1;" d="M 53.179688 14.441406 C 52.167969 14.441406 52.167969 16.023438 53.179688 16.023438 C 54.191406 16.023438 54.191406 14.441406 53.179688 14.441406 Z M 53.179688 14.441406 "/>
<path style=" stroke:none;fill-rule:nonzero;fill:rgb(0%,0%,0%);fill-opacity:1;" d="M 65.996094 19.136719 C 67.007812 19.136719 67.007812 17.550781 65.996094 17.550781 C 64.984375 17.550781 64.980469 19.136719 65.996094 19.136719 Z M 65.996094 19.136719 "/>
<path style=" stroke:none;fill-rule:nonzero;fill:rgb(0%,0%,0%);fill-opacity:1;" d="M 69.234375 20.894531 C 70.753906 20.894531 70.757812 18.519531 69.234375 18.519531 C 67.714844 18.515625 67.714844 20.894531 69.234375 20.894531 Z M 69.234375 20.894531 "/>
<path style=" stroke:none;fill-rule:nonzero;fill:rgb(0%,0%,0%);fill-opacity:1;" d="M 31.394531 6.375 C 31.964844 6.976562 32.613281 7.550781 33.359375 7.914062 C 34.125 8.289062 34.746094 7.636719 34.136719 6.910156 C 33.265625 5.867188 32.390625 4.828125 31.519531 3.789062 C 31.058594 3.242188 29.996094 3.71875 30.027344 4.40625 C 30.0625 5.160156 30.90625 5.863281 31.394531 6.375 Z M 31.394531 6.375 "/>
<path style=" stroke:none;fill-rule:nonzero;fill:rgb(0%,0%,0%);fill-opacity:1;" d="M 24.574219 9.851562 C 25.511719 10.3125 26.457031 10.753906 27.390625 11.21875 C 28.273438 11.660156 29.210938 11.960938 30.148438 12.277344 C 31.023438 12.570312 31.75 11.375 30.878906 10.910156 C 28.828125 9.8125 26.839844 8.570312 24.832031 7.394531 C 24.355469 7.113281 23.609375 6.789062 23.054688 6.972656 C 22.628906 7.117188 22.34375 7.714844 22.402344 8.132812 C 22.535156 9.089844 23.839844 9.488281 24.574219 9.851562 Z M 24.574219 9.851562 "/>
<path style=" stroke:none;fill-rule:nonzero;fill:rgb(0%,0%,0%);fill-opacity:1;" d="M 30.640625 17.074219 C 30.167969 17.121094 29.6875 17.164062 29.214844 17.1875 C 28.5 17.226562 27.765625 17.222656 27.050781 17.304688 C 26.625 17.351562 26.027344 17.332031 25.652344 17.449219 C 25.269531 17.566406 24.765625 17.90625 24.789062 18.359375 C 24.820312 19.128906 25.597656 19.371094 26.226562 19.273438 C 27.710938 19.054688 29.148438 18.804688 30.640625 18.65625 C 31.050781 18.617188 31.449219 18.320312 31.425781 17.867188 C 31.40625 17.472656 31.078125 17.03125 30.640625 17.074219 Z M 30.640625 17.074219 "/>
<path style=" stroke:none;fill-rule:nonzero;fill:rgb(0%,0%,0%);fill-opacity:1;" d="M 78.46875 11.824219 C 79.433594 11.144531 80.398438 10.460938 81.363281 9.78125 C 81.902344 9.398438 83.21875 8.914062 83.085938 8.074219 C 83.039062 7.765625 82.777344 7.515625 82.480469 7.417969 C 82.183594 7.320312 81.859375 7.359375 81.5625 7.453125 C 81.003906 7.625 80.527344 7.992188 80.074219 8.359375 C 79.464844 8.855469 78.875 9.378906 78.304688 9.917969 C 78 10.210938 77.238281 10.882812 77.308594 11.375 C 77.378906 11.847656 78.109375 12.078125 78.46875 11.824219 Z M 78.46875 11.824219 "/>
<path style=" stroke:none;fill-rule:nonzero;fill:rgb(0%,0%,0%);fill-opacity:1;" d="M 78.300781 16.132812 C 78.039062 16.746094 78.46875 17.015625 79.136719 17.109375 C 80.210938 17.261719 81.902344 16.953125 82.300781 16.894531 C 83.929688 16.648438 85.558594 16.402344 87.191406 16.15625 C 87.773438 16.066406 88.792969 15.90625 89.246094 15.484375 C 89.882812 14.886719 89.210938 14.03125 88.484375 14.136719 C 85.921875 14.507812 83.363281 14.878906 80.800781 15.25 C 80.066406 15.355469 78.664062 15.28125 78.300781 16.132812 Z M 78.300781 16.132812 "/>
<path style=" stroke:none;fill-rule:nonzero;fill:rgb(0%,0%,0%);fill-opacity:1;" d="M 83.929688 25.3125 C 84.960938 25.492188 85.679688 23.96875 84.550781 23.65625 C 82.652344 23.128906 80.753906 22.605469 78.855469 22.078125 C 78.511719 21.984375 77.972656 22.1875 77.902344 22.585938 C 77.847656 22.878906 78.144531 23.164062 78.550781 23.417969 C 79.175781 23.808594 80.0625 24.117188 80.371094 24.253906 C 81.511719 24.746094 82.707031 25.105469 83.929688 25.3125 Z M 83.929688 25.3125 "/>
<path style=" stroke:none;fill-rule:nonzero;fill:rgb(0%,0%,0%);fill-opacity:1;" d="M 20.984375 71.234375 C 18.644531 71.234375 18.640625 74.890625 20.984375 74.890625 C 23.324219 74.890625 23.328125 71.234375 20.984375 71.234375 Z M 20.984375 71.234375 "/>
<path style=" stroke:none;fill-rule:nonzero;fill:rgb(0%,0%,0%);fill-opacity:1;" d="M 29.890625 71.234375 C 27.554688 71.234375 27.550781 74.890625 29.890625 74.890625 C 32.230469 74.890625 32.234375 71.234375 29.890625 71.234375 Z M 29.890625 71.234375 "/>
<path style=" stroke:none;fill-rule:nonzero;fill:rgb(0%,0%,0%);fill-opacity:1;" d="M 40.679688 71.5625 C 40.503906 71.398438 40.296875 71.289062 40.0625 71.234375 C 39.808594 71.152344 39.582031 71.1875 39.335938 71.199219 C 38.667969 71.230469 37.988281 71.785156 37.804688 72.4375 C 37.667969 72.929688 37.78125 73.472656 38.011719 73.917969 C 38.265625 74.414062 38.6875 74.8125 39.1875 74.929688 C 39.707031 75.054688 40.296875 74.941406 40.746094 74.644531 C 41.289062 74.285156 41.40625 73.777344 41.488281 73.167969 C 41.484375 72.539062 41.132812 71.976562 40.679688 71.5625 Z M 40.679688 71.5625 "/>
<path style=" stroke:none;fill-rule:nonzero;fill:rgb(0%,0%,0%);fill-opacity:1;" d="M 49.867188 70.808594 C 47.527344 70.808594 47.523438 74.46875 49.867188 74.46875 C 52.207031 74.46875 52.210938 70.808594 49.867188 70.808594 Z M 49.867188 70.808594 "/>
<path style=" stroke:none;fill-rule:nonzero;fill:rgb(0%,0%,0%);fill-opacity:1;" d="M 61.699219 70.792969 C 60.511719 70.167969 59.214844 71.25 59.171875 72.464844 C 59.152344 73.039062 59.394531 73.546875 59.820312 73.917969 C 59.949219 73.917969 60.285156 74.222656 60.445312 74.273438 C 60.699219 74.355469 60.976562 74.382812 61.242188 74.347656 C 62.703125 74.167969 63.367188 72.1875 62.28125 71.171875 C 62.117188 70.992188 61.921875 70.867188 61.699219 70.792969 Z M 61.699219 70.792969 "/>
<path style=" stroke:none;fill-rule:nonzero;fill:rgb(0%,0%,0%);fill-opacity:1;" d="M 70.316406 70.722656 C 67.976562 70.722656 67.972656 74.382812 70.316406 74.382812 C 72.65625 74.382812 72.660156 70.722656 70.316406 70.722656 Z M 70.316406 70.722656 "/>
<path style=" stroke:none;fill-rule:nonzero;fill:rgb(0%,0%,0%);fill-opacity:1;" d="M 80.066406 70.550781 C 77.730469 70.550781 77.726562 74.207031 80.066406 74.207031 C 82.40625 74.207031 82.410156 70.550781 80.066406 70.550781 Z M 80.066406 70.550781 "/>
</g>
</svg>
